<?xml version="1.0" encoding="utf-8"?>
<!-- Generator: Adobe Illustrator 24.0.0, SVG Export Plug-In . SVG Version: 6.00 Build 0)  -->
<svg version="1.1" id="Layer_1" xmlns="http://www.w3.org/2000/svg" xmlns:xlink="http://www.w3.org/1999/xlink" x="0px" y="0px"
	 viewBox="0 0 292 79" style="enable-background:new 0 0 292 79;" xml:space="preserve">
<style type="text/css">
	.st0{clip-path:url(#SVGID_2_);}
	.st1{fill:#519259;}
</style>
<g>
	<defs>
		<rect id="SVGID_1_" x="6.7" y="5.9" width="54.7" height="70"/>
	</defs>
	<clipPath id="SVGID_2_">
		<use xlink:href="#SVGID_1_"  style="overflow:visible;"/>
	</clipPath>
	<g class="st0">
		<path class="st1" d="M29.6,71.5L49,52.3c6.4-6.3,6.4-16.5,0-22.8l-15.2-15l-15.2,15c-6.3,6.3-6.3,16.5,0,22.8l4.6,4.5
			c0,0,9-8.8,9.2-9.1c0.8-1.1,1.3-2.5,1.3-3.8c0.2,0.2,0.4,0.3,0.6,0.5c2.6,2.6,2.9,6.6,0.8,9.5L23.5,65.4l-0.1,0.1l-9.7-9.6
			c-8.4-8.3-8.4-21.8,0-30.1L33.8,5.9l20.1,19.9c8.4,8.3,8.4,21.8,0,30.1L33.8,75.8L29.6,71.5L29.6,71.5z M24.1,36.3
			C24.1,36.3,24,36.3,24.1,36.3c-2.3,2.3-2.4,5.8-0.4,8.1c0.1,0.2,0.3,0.3,0.4,0.5L34,35l9.9,9.8c2.4-2.4,2.4-6.2,0-8.6l-9.9-9.8
			l0,0l0,0L24.1,36.3z"/>
	</g>
</g>
<g>
	<g transform="translate(122.915094, 201.749987)">
		<g>
			<path class="st1" d="M-52-141.8v-41.1h5.3v37.8h21.2v3.2H-52z"/>
		</g>
	</g>
</g>
<g>
	<g transform="translate(149.398369, 201.749987)">
		<g>
			<path class="st1" d="M-19.5-155.1v-1.2c0-2.6-0.4-4.9-1.1-6.8c-0.7-1.9-1.7-3.5-3-4.8c-1.3-1.3-2.7-2.2-4.4-2.8
				c-1.7-0.6-3.5-0.9-5.3-0.9c-2,0-3.8,0.3-5.5,1c-1.7,0.7-3.1,1.7-4.4,3c-1.3,1.3-2.2,2.9-2.9,4.8c-0.7,1.9-1,4-1,6.3
				c0,1.9,0.3,3.8,0.9,5.7c0.6,1.9,1.5,3.5,2.8,5c1.2,1.5,2.8,2.6,4.7,3.5c1.9,0.9,4.1,1.3,6.7,1.3c2.5,0,4.8-0.4,6.9-1.3
				c2.1-0.9,3.9-2.2,5.5-3.8l-1.9-1.9c-0.8,0.7-1.6,1.3-2.3,1.9c-0.7,0.6-1.5,1.1-2.2,1.5c-0.7,0.4-1.5,0.7-2.3,0.9
				c-0.8,0.2-1.7,0.3-2.7,0.3c-1.1,0-2.3-0.2-3.5-0.5c-1.2-0.3-2.4-0.9-3.4-1.8c-1.1-0.9-1.9-2-2.6-3.6c-0.7-1.5-1-3.5-1-5.9H-19.5z
				 M-41.7-157.5c0-1.6,0.2-3.1,0.5-4.5c0.3-1.5,0.8-2.8,1.5-3.9c0.7-1.1,1.6-2,2.6-2.7c1.1-0.7,2.3-1,3.8-1c2.8,0,4.9,1.1,6.5,3.3
				c1.6,2.2,2.3,5.1,2.3,8.9H-41.7z"/>
		</g>
	</g>
</g>
<g>
	<g transform="translate(174.649871, 201.749987)">
		<g>
			<path class="st1" d="M-26.3-171.7c2.9,0,5.1,0.4,6.6,1.2c1.6,0.8,2.7,1.8,3.4,3.1c0.7,1.3,1.1,2.8,1.2,4.5
				c0.1,1.7,0.2,3.4,0.2,5.1v16h-4.7v-2.9c-1.1,1.1-2.6,2-4.3,2.6c-1.8,0.6-3.5,1-5.3,1c-1.7,0-3.2-0.3-4.5-0.9
				c-1.3-0.6-2.4-1.4-3.2-2.3c-0.8-0.9-1.5-2-1.9-3.2c-0.4-1.2-0.6-2.4-0.6-3.6c0-1.3,0.2-2.5,0.7-3.8c0.5-1.3,1.2-2.4,2.1-3.4
				c0.9-1,2.1-1.8,3.5-2.4c1.4-0.6,2.9-0.9,4.7-0.9c1.8,0,3.4,0.3,5,1c1.6,0.7,2.9,1.6,3.9,2.9v-2.5c0-3.2-0.5-5.6-1.4-7.1
				c-1-1.6-2.7-2.4-5.3-2.4c-1.1,0-2.1,0.1-2.9,0.4c-0.8,0.3-1.6,0.7-2.2,1.1c-0.6,0.5-1.2,1.1-1.8,1.8c-0.5,0.7-1.1,1.5-1.6,2.4
				l-3.1-3c0.6-0.6,1.1-1.2,1.7-1.8c0.6-0.6,1.4-1.1,2.2-1.6c0.9-0.5,1.9-0.9,3.1-1.1C-29.5-171.6-28-171.7-26.3-171.7z
				 M-19.6-153.4c-0.2-0.5-0.5-1-0.9-1.6c-0.4-0.6-0.8-1.2-1.4-1.8c-0.6-0.6-1.3-1.1-2.1-1.5c-0.8-0.4-1.8-0.6-2.9-0.6
				c-1.1,0-2.2,0.2-3.1,0.7c-0.9,0.4-1.7,1-2.4,1.8c-0.6,0.7-1.1,1.6-1.5,2.6c-0.3,1-0.5,2-0.5,3c0,1.3,0.2,2.3,0.7,3.3
				c0.5,0.9,1,1.7,1.7,2.4c0.7,0.6,1.5,1.1,2.4,1.4c0.9,0.3,1.7,0.5,2.5,0.5c0.8,0,1.5-0.1,2.3-0.4c0.8-0.3,1.5-0.7,2.2-1.1
				c0.7-0.5,1.3-1.1,1.8-1.7c0.6-0.7,1-1.4,1.4-2.2V-153.4z"/>
		</g>
	</g>
</g>
<g>
	<g transform="translate(198.405641, 201.749987)">
		<g>
			<path class="st1" d="M-32.1-171.1v2.4h5.1v27h5v-27h7.1v-2.4H-22v-4.9c0-0.5,0-1,0-1.6c0-0.7,0.2-1.3,0.4-1.8
				c0.2-0.6,0.5-1,0.9-1.4c0.4-0.4,1-0.6,1.7-0.6c0.9,0,1.7,0.4,2.3,1.2c0.6,0.8,1.1,1.6,1.5,2.4l2.6-2.8c-0.9-0.9-1.9-1.6-2.9-2.1
				c-1-0.5-2.1-0.7-3.4-0.7c-1,0-2,0.2-3,0.5c-1,0.3-1.8,0.9-2.6,1.6c-0.8,0.7-1.4,1.7-1.9,2.8c-0.5,1.1-0.7,2.5-0.7,4v3.5H-32.1z"
				/>
		</g>
	</g>
</g>
<g>
	<g transform="translate(214.374794, 201.749987)">
		<g>
			<path class="st1" d="M-21.5-141.8v-41.1h5.3v37.8H5v3.2H-21.5z"/>
		</g>
	</g>
</g>
<g>
	<g transform="translate(240.858068, 201.749987)">
		<g>
			<path class="st1" d="M13.6-156.4c0,2-0.4,4-1.1,5.8c-0.7,1.9-1.7,3.5-3,4.9c-1.3,1.4-2.9,2.5-4.8,3.3c-1.8,0.8-3.9,1.2-6.2,1.2
				c-2.3,0-4.5-0.4-6.4-1.3c-1.9-0.8-3.5-2-4.8-3.4c-1.3-1.4-2.3-3.1-3-4.9c-0.7-1.9-1.1-3.8-1.1-5.8c0-2,0.4-4,1.1-5.8
				c0.7-1.9,1.7-3.5,3-4.9c1.3-1.4,2.9-2.5,4.8-3.4c1.9-0.8,4-1.3,6.4-1.3c2.3,0,4.4,0.4,6.2,1.3c1.9,0.8,3.4,2,4.8,3.4
				c1.3,1.4,2.3,3,3,4.9C13.2-160.3,13.6-158.4,13.6-156.4z M8-156.4c0-2.7-0.3-4.9-0.9-6.6c-0.6-1.7-1.3-3-2.3-4
				c-0.9-0.9-2-1.6-3.1-1.9c-1.1-0.3-2.2-0.5-3.3-0.5c-1.1,0-2.2,0.2-3.3,0.5c-1.1,0.3-2.2,1-3.1,1.9c-1,0.9-1.7,2.3-2.4,4
				c-0.6,1.7-0.9,3.9-0.9,6.6c0,2.7,0.3,4.9,0.9,6.6c0.6,1.7,1.4,3,2.4,4c1,0.9,2,1.6,3.1,1.9c1.1,0.3,2.2,0.5,3.3,0.5
				c1.1,0,2.1-0.2,3.3-0.5c1.1-0.3,2.2-1,3.1-1.9c0.9-0.9,1.7-2.3,2.3-4C7.7-151.5,8-153.7,8-156.4z"/>
		</g>
	</g>
</g>
<g>
	<g transform="translate(268.045223, 201.749987)">
		<g>
			<path class="st1" d="M15-139.3c0,1.8-0.2,3.3-0.6,4.6c-0.4,1.3-1,2.3-1.8,3c-0.8,0.8-1.7,1.4-2.7,1.7c-1,0.3-2.1,0.5-3.3,0.5
				c-2.1,0-3.7-0.5-5-1.6c-1.3-1.1-2.4-2.5-3.5-4.2l-3.2,2.9c0.3,0.4,0.7,0.8,1.3,1.4c0.6,0.6,1.3,1.1,2.2,1.7
				c0.9,0.6,2,1.1,3.2,1.5c1.3,0.4,2.7,0.6,4.3,0.6c3,0,5.4-0.4,7.2-1.3c1.8-0.8,3.3-2,4.3-3.4c1-1.4,1.7-3,2.1-4.8
				c0.4-1.8,0.6-3.7,0.6-5.6v-28.8h-5v4.6h-0.3c-0.5-1.7-1.5-2.9-3-3.9c-1.5-0.9-3.6-1.4-6.1-1.4c-2,0-3.8,0.4-5.5,1.1
				c-1.6,0.7-3.1,1.8-4.2,3.1c-1.2,1.3-2.1,2.9-2.7,4.8c-0.6,1.9-1,4-1,6.3c0,2.3,0.3,4.5,1,6.4c0.7,1.9,1.6,3.5,2.7,4.9
				c1.2,1.3,2.6,2.4,4.2,3.1c1.6,0.7,3.4,1.1,5.4,1.1c2.2,0,4.1-0.4,5.7-1.3c1.6-0.9,2.8-2.2,3.4-4.1H15V-139.3z M15-154.3
				c0,1.6-0.2,3.1-0.7,4.4c-0.4,1.3-1,2.3-1.8,3.2c-0.7,0.9-1.6,1.5-2.6,2c-1,0.4-2,0.7-3,0.7c-0.9,0-2-0.2-3-0.5
				c-1.1-0.3-2.1-0.9-3-1.8c-0.9-0.9-1.7-2.2-2.3-3.8c-0.6-1.7-0.9-3.8-0.9-6.3c0-2.8,0.4-4.9,1.1-6.5c0.8-1.6,1.6-2.9,2.6-3.7
				c1-0.9,2-1.4,3.1-1.7c1-0.3,1.9-0.4,2.4-0.4c1.3,0,2.4,0.3,3.5,0.9c1,0.6,1.9,1.3,2.5,2.3c0.7,1,1.2,2.1,1.6,3.3
				c0.4,1.3,0.5,2.5,0.5,3.9V-154.3z"/>
		</g>
	</g>
</g>
</svg>
