<?xml version="1.0" encoding="utf-8"?>
<!-- Generator: Adobe Illustrator 24.0.0, SVG Export Plug-In . SVG Version: 6.00 Build 0)  -->
<svg version="1.1" id="Layer_1" xmlns="http://www.w3.org/2000/svg" xmlns:xlink="http://www.w3.org/1999/xlink" x="0px" y="0px"
	 viewBox="0 0 236.5 322.2" style="enable-background:new 0 0 236.5 322.2;" xml:space="preserve">
<style type="text/css">
	.st0{clip-path:url(#SVGID_2_);}
	.st1{fill:#519259;}
</style>
<g>
	<g>
		<defs>
			<rect id="SVGID_1_" x="2.7" y="9.3" width="229.3" height="306"/>
		</defs>
		<clipPath id="SVGID_2_">
			<use xlink:href="#SVGID_1_"  style="overflow:visible;"/>
		</clipPath>
		<g class="st0">
			<path class="st1" d="M99.6,296.1l83.9-84c27.4-27.5,27.4-72.1,0-99.6l-65.6-65.8l-65.6,65.8c-27.4,27.5-27.4,72.1,0,99.6
				L72,231.9c0,0,38.7-38.3,39.8-39.9c3.5-5,5.4-10.7,5.8-16.6c0.8,0.7,1.6,1.4,2.4,2.2c11.3,11.3,12.5,28.9,3.7,41.6l-50.4,50.5
				L73,270l-42-41.9c-36.2-36.3-36.2-95.4,0-131.7l86.8-86.9l86.8,86.9c36.2,36.3,36.2,95.4,0,131.7L117.8,315l-18.6-18.6
				L99.6,296.1z M75.8,142.1c-0.1,0.1-0.2,0.2-0.3,0.3c-9.4,9.8-9.9,24.9-1.5,35.3c0.6,0.7,1.2,1.4,1.8,2l42.9-43l42.9,43
				c10.4-10.4,10.4-27.2,0-37.6l-42.7-42.8l-0.2,0.2l-0.2-0.2L75.8,142.1z"/>
		</g>
	</g>
</g>
</svg>
