<?xml version="1.0" encoding="utf-8"?>
<!-- Generator: Adobe Illustrator 24.0.0, SVG Export Plug-In . SVG Version: 6.00 Build 0)  -->
<svg version="1.1" id="Layer_1" xmlns="http://www.w3.org/2000/svg" xmlns:xlink="http://www.w3.org/1999/xlink" x="0px" y="0px"
	 viewBox="0 0 294 104" style="enable-background:new 0 0 294 104;" xml:space="preserve">
<style type="text/css">
	.st0{clip-path:url(#SVGID_2_);}
	.st1{fill:#519259;}
	.st2{fill:#244743;}
</style>
<g>
	<defs>
		<rect id="SVGID_1_" x="5.7" y="6.5" width="54.7" height="70"/>
	</defs>
	<clipPath id="SVGID_2_">
		<use xlink:href="#SVGID_1_"  style="overflow:visible;"/>
	</clipPath>
	<g class="st0">
		<path class="st1" d="M28.6,72.1L48,52.9c6.4-6.3,6.4-16.5,0-22.8L32.8,15l-15.2,15c-6.3,6.3-6.3,16.5,0,22.8l4.6,4.5
			c0,0,9-8.8,9.2-9.1c0.8-1.1,1.3-2.5,1.3-3.8c0.2,0.2,0.4,0.3,0.6,0.5c2.6,2.6,2.9,6.6,0.8,9.5L22.5,66l-0.1,0.1l-9.7-9.6
			c-8.4-8.3-8.4-21.8,0-30.1L32.8,6.5l20.1,19.9c8.4,8.3,8.4,21.8,0,30.1L32.8,76.4L28.6,72.1L28.6,72.1z M23.1,36.9
			C23.1,36.9,23,36.9,23.1,36.9c-2.3,2.3-2.4,5.8-0.4,8.1c0.1,0.2,0.3,0.3,0.4,0.5l9.9-9.8l9.9,9.8c2.4-2.4,2.4-6.2,0-8.6l-9.9-9.8
			l0,0l0,0L23.1,36.9z"/>
	</g>
</g>
<g>
	<g transform="translate(122.915094, 193.199987)">
		<g>
			<path class="st1" d="M-53-132.6v-41.1h5.3v37.8h21.2v3.2H-53z"/>
		</g>
	</g>
</g>
<g>
	<g transform="translate(149.398369, 193.199987)">
		<g>
			<path class="st1" d="M-20.5-146v-1.2c0-2.6-0.4-4.9-1.1-6.8c-0.7-1.9-1.7-3.5-3-4.8c-1.3-1.3-2.7-2.2-4.4-2.8
				c-1.7-0.6-3.5-0.9-5.3-0.9c-2,0-3.8,0.3-5.5,1c-1.7,0.7-3.1,1.7-4.4,3c-1.3,1.3-2.2,2.9-2.9,4.8c-0.7,1.9-1,4-1,6.3
				c0,1.9,0.3,3.8,0.9,5.7c0.6,1.9,1.5,3.5,2.8,5c1.2,1.5,2.8,2.6,4.7,3.5c1.9,0.9,4.1,1.3,6.7,1.3c2.5,0,4.8-0.4,6.9-1.3
				c2.1-0.9,3.9-2.2,5.5-3.8l-1.9-1.9c-0.8,0.7-1.6,1.3-2.3,1.9c-0.7,0.6-1.5,1.1-2.2,1.5c-0.7,0.4-1.5,0.7-2.3,0.9
				c-0.8,0.2-1.7,0.3-2.7,0.3c-1.1,0-2.3-0.2-3.5-0.5c-1.2-0.3-2.4-0.9-3.4-1.8c-1.1-0.9-1.9-2-2.6-3.6c-0.7-1.5-1-3.5-1-5.9H-20.5z
				 M-42.7-148.3c0-1.6,0.2-3.1,0.5-4.5c0.3-1.5,0.8-2.8,1.5-3.9c0.7-1.1,1.6-2,2.6-2.7c1.1-0.7,2.3-1,3.8-1c2.8,0,4.9,1.1,6.5,3.3
				c1.6,2.2,2.3,5.1,2.3,8.9H-42.7z"/>
		</g>
	</g>
</g>
<g>
	<g transform="translate(174.649871, 193.199987)">
		<g>
			<path class="st1" d="M-27.3-162.6c2.9,0,5.1,0.4,6.6,1.2c1.6,0.8,2.7,1.8,3.4,3.1c0.7,1.3,1.1,2.8,1.2,4.5
				c0.1,1.7,0.2,3.4,0.2,5.1v16h-4.7v-2.9c-1.1,1.1-2.6,2-4.3,2.6c-1.8,0.6-3.5,1-5.3,1c-1.7,0-3.2-0.3-4.5-0.9
				c-1.3-0.6-2.4-1.4-3.2-2.3c-0.8-0.9-1.5-2-1.9-3.2c-0.4-1.2-0.6-2.4-0.6-3.6c0-1.3,0.2-2.5,0.7-3.8c0.5-1.3,1.2-2.4,2.1-3.4
				c0.9-1,2.1-1.8,3.5-2.4c1.4-0.6,2.9-0.9,4.7-0.9c1.8,0,3.4,0.3,5,1c1.6,0.7,2.9,1.6,3.9,2.9v-2.5c0-3.2-0.5-5.6-1.4-7.1
				c-1-1.6-2.7-2.4-5.3-2.4c-1.1,0-2.1,0.1-2.9,0.4c-0.8,0.3-1.6,0.7-2.2,1.1c-0.6,0.5-1.2,1.1-1.8,1.8c-0.5,0.7-1.1,1.5-1.6,2.4
				l-3.1-3c0.6-0.6,1.1-1.2,1.7-1.8c0.6-0.6,1.4-1.1,2.2-1.6c0.9-0.5,1.9-0.9,3.1-1.1C-30.5-162.4-29-162.6-27.3-162.6z
				 M-20.6-144.2c-0.2-0.5-0.5-1-0.9-1.6c-0.4-0.6-0.8-1.2-1.4-1.8c-0.6-0.6-1.3-1.1-2.1-1.5c-0.8-0.4-1.8-0.6-2.9-0.6
				c-1.1,0-2.2,0.2-3.1,0.7c-0.9,0.4-1.7,1-2.4,1.8c-0.6,0.7-1.1,1.6-1.5,2.6c-0.3,1-0.5,2-0.5,3c0,1.3,0.2,2.3,0.7,3.3
				c0.5,0.9,1,1.7,1.7,2.4c0.7,0.6,1.5,1.1,2.4,1.4c0.9,0.3,1.7,0.5,2.5,0.5c0.8,0,1.5-0.1,2.3-0.4c0.8-0.3,1.5-0.7,2.2-1.1
				c0.7-0.5,1.3-1.1,1.8-1.7c0.6-0.7,1-1.4,1.4-2.2V-144.2z"/>
		</g>
	</g>
</g>
<g>
	<g transform="translate(198.405641, 193.199987)">
		<g>
			<path class="st1" d="M-33.1-161.9v2.4h5.1v27h5v-27h7.1v-2.4H-23v-4.9c0-0.5,0-1,0-1.6c0-0.7,0.2-1.3,0.4-1.8
				c0.2-0.6,0.5-1,0.9-1.4c0.4-0.4,1-0.6,1.7-0.6c0.9,0,1.7,0.4,2.3,1.2c0.6,0.8,1.1,1.6,1.5,2.4l2.6-2.8c-0.9-0.9-1.9-1.6-2.9-2.1
				c-1-0.5-2.1-0.7-3.4-0.7c-1,0-2,0.2-3,0.5c-1,0.3-1.8,0.9-2.6,1.6c-0.8,0.7-1.4,1.7-1.9,2.8c-0.5,1.1-0.7,2.5-0.7,4v3.5H-33.1z"
				/>
		</g>
	</g>
</g>
<g>
	<g transform="translate(214.374794, 193.199987)">
		<g>
			<path class="st1" d="M-22.5-132.6v-41.1h5.3v37.8H4v3.2H-22.5z"/>
		</g>
	</g>
</g>
<g>
	<g transform="translate(240.858068, 193.199987)">
		<g>
			<path class="st1" d="M12.6-147.2c0,2-0.4,4-1.1,5.8c-0.7,1.9-1.7,3.5-3,4.9c-1.3,1.4-2.9,2.5-4.8,3.3c-1.8,0.8-3.9,1.2-6.2,1.2
				c-2.3,0-4.5-0.4-6.4-1.3c-1.9-0.8-3.5-2-4.8-3.4c-1.3-1.4-2.3-3.1-3-4.9c-0.7-1.9-1.1-3.8-1.1-5.8c0-2,0.4-4,1.1-5.8
				c0.7-1.9,1.7-3.5,3-4.9c1.3-1.4,2.9-2.5,4.8-3.4c1.9-0.8,4-1.3,6.4-1.3c2.3,0,4.4,0.4,6.2,1.3c1.9,0.8,3.4,2,4.8,3.4
				c1.3,1.4,2.3,3,3,4.9C12.2-151.2,12.6-149.2,12.6-147.2z M7-147.2c0-2.7-0.3-4.9-0.9-6.6c-0.6-1.7-1.3-3-2.3-4
				c-0.9-0.9-2-1.6-3.1-1.9c-1.1-0.3-2.2-0.5-3.3-0.5c-1.1,0-2.2,0.2-3.3,0.5c-1.1,0.3-2.2,1-3.1,1.9c-1,0.9-1.7,2.3-2.4,4
				c-0.6,1.7-0.9,3.9-0.9,6.6c0,2.7,0.3,4.9,0.9,6.6c0.6,1.7,1.4,3,2.4,4c1,0.9,2,1.6,3.1,1.9c1.1,0.3,2.2,0.5,3.3,0.5
				c1.1,0,2.1-0.2,3.3-0.5c1.1-0.3,2.2-1,3.1-1.9c0.9-0.9,1.7-2.3,2.3-4C6.7-142.3,7-144.5,7-147.2z"/>
		</g>
	</g>
</g>
<g>
	<g transform="translate(268.045223, 193.199987)">
		<g>
			<path class="st1" d="M14-130.1c0,1.8-0.2,3.3-0.6,4.6c-0.4,1.3-1,2.3-1.8,3c-0.8,0.8-1.7,1.4-2.7,1.7c-1,0.3-2.1,0.5-3.3,0.5
				c-2.1,0-3.7-0.5-5-1.6c-1.3-1.1-2.4-2.5-3.5-4.2l-3.2,2.9c0.3,0.4,0.7,0.8,1.3,1.4c0.6,0.6,1.3,1.1,2.2,1.7
				c0.9,0.6,2,1.1,3.2,1.5c1.3,0.4,2.7,0.6,4.3,0.6c3,0,5.4-0.4,7.2-1.3c1.8-0.8,3.3-2,4.3-3.4c1-1.4,1.7-3,2.1-4.8
				c0.4-1.8,0.6-3.7,0.6-5.6v-28.8h-5v4.6h-0.3c-0.5-1.7-1.5-2.9-3-3.9c-1.5-0.9-3.6-1.4-6.1-1.4c-2,0-3.8,0.4-5.5,1.1
				c-1.6,0.7-3.1,1.8-4.2,3.1c-1.2,1.3-2.1,2.9-2.7,4.8c-0.6,1.9-1,4-1,6.3c0,2.3,0.3,4.5,1,6.4c0.7,1.9,1.6,3.5,2.7,4.9
				c1.2,1.3,2.6,2.4,4.2,3.1c1.6,0.7,3.4,1.1,5.4,1.1c2.2,0,4.1-0.4,5.7-1.3c1.6-0.9,2.8-2.2,3.4-4.1H14V-130.1z M14-145.1
				c0,1.6-0.2,3.1-0.7,4.4c-0.4,1.3-1,2.3-1.8,3.2c-0.7,0.9-1.6,1.5-2.6,2c-1,0.4-2,0.7-3,0.7c-0.9,0-2-0.2-3-0.5
				c-1.1-0.3-2.1-0.9-3-1.8c-0.9-0.9-1.7-2.2-2.3-3.8c-0.6-1.7-0.9-3.8-0.9-6.3c0-2.8,0.4-4.9,1.1-6.5c0.8-1.6,1.6-2.9,2.6-3.7
				c1-0.9,2-1.4,3.1-1.7c1-0.3,1.9-0.4,2.4-0.4c1.3,0,2.4,0.3,3.5,0.9c1,0.6,1.9,1.3,2.5,2.3c0.7,1,1.2,2.1,1.6,3.3
				c0.4,1.3,0.5,2.5,0.5,3.9V-145.1z"/>
		</g>
	</g>
</g>
<g>
	<g transform="translate(88.83758, 218.349991)">
		<g>
			<path class="st2" d="M-62-124.2h1.5l-4.7-11.2h-1.3l-4.6,11.2h1.5l1.1-2.7h5.4L-62-124.2z M-65.9-133.5l2.2,5.3H-68L-65.9-133.5z
				"/>
		</g>
	</g>
</g>
<g>
	<g transform="translate(100.081614, 218.349991)">
	</g>
</g>
<g>
	<g transform="translate(106.105633, 218.349991)">
		<g>
			<path class="st2" d="M-60.4-135.4h-3.7v11.2h3.7c3.3,0,5.7-2.4,5.7-5.6C-54.7-133-57.1-135.4-60.4-135.4L-60.4-135.4z
				 M-60.4-125.5h-2.3v-8.6h2.3c2.5,0,4.3,1.8,4.3,4.3C-56.1-127.3-57.9-125.5-60.4-125.5z"/>
		</g>
	</g>
</g>
<g>
	<g transform="translate(117.781671, 218.349991)">
		<g>
			<path class="st2" d="M-60.4-134.3h1.5v-1.6h-1.5V-134.3z M-60.4-124.2h1.4v-8.6h-1.4V-124.2z"/>
		</g>
	</g>
</g>
<g>
	<g transform="translate(123.733694, 218.349991)">
		<g>
			<path class="st2" d="M-51.3-132.9l-0.2,1.3c-0.8-0.9-2-1.5-3.4-1.5c-2.4,0-4.2,1.9-4.2,4.3c0,2.4,1.8,4.3,4.2,4.3
				c1.3,0,2.4-0.5,3.2-1.3v0.5c0,1.9-1.2,3.1-2.9,3.1c-1.2,0-2.3-0.6-2.7-1.7h-1.4c0.5,1.8,2,2.9,4.1,2.9c2.6,0,4.2-1.7,4.2-4.5
				v-7.4L-51.3-132.9z M-54.7-125.8c-1.7,0-3-1.3-3-3c0-1.7,1.3-3,3-3s3,1.3,3,3C-51.7-127-52.9-125.8-54.7-125.8z"/>
		</g>
	</g>
</g>
<g>
	<g transform="translate(134.701731, 218.349991)">
		<g>
			<path class="st2" d="M-54.8-134.3h1.5v-1.6h-1.5V-134.3z M-54.7-124.2h1.4v-8.6h-1.4V-124.2z"/>
		</g>
	</g>
</g>
<g>
	<g transform="translate(140.653757, 218.349991)">
		<g>
			<path class="st2" d="M-49.2-125.5c-1.2,0-1.8-0.6-1.8-1.8v-4.3h2.7v-1.2H-51v-1.8h-0.2l-2.7,2.8v0.2h1.5v4.4c0,1.9,1.2,3,3,3h1.1
				v-1.3H-49.2z"/>
		</g>
	</g>
</g>
<g>
	<g transform="translate(148.285787, 218.349991)">
		<g>
			<path class="st2" d="M-42.8-132.9l-0.2,1.3c-0.8-0.9-2-1.5-3.4-1.5c-2.6,0-4.5,1.9-4.5,4.5c0,2.6,1.9,4.5,4.5,4.5
				c1.4,0,2.6-0.6,3.4-1.5l0.1,1.3h1.1v-8.6H-42.8z M-46.3-125.3c-1.8,0-3.2-1.4-3.2-3.2c0-1.8,1.4-3.2,3.2-3.2
				c1.8,0,3.2,1.4,3.2,3.2C-43.2-126.7-44.5-125.3-46.3-125.3z"/>
		</g>
	</g>
</g>
<g>
	<g transform="translate(159.553822, 218.349991)">
		<g>
			<path class="st2" d="M-46.5-124.2h1.4v-11.7h-1.4V-124.2z"/>
		</g>
	</g>
</g>
<g>
	<g transform="translate(165.505848, 218.349991)">
	</g>
</g>
<g>
	<g transform="translate(171.529869, 218.349991)">
		<g>
			<path class="st2" d="M-39-124.1c2.2,0,4-1.2,4-3.3c0-2.3-2-2.8-3.7-3.2c-1.4-0.3-2.7-0.7-2.7-1.9c0-1.1,1-1.7,2.4-1.7
				s2.4,0.7,2.4,2h1.4c0-2-1.4-3.3-3.7-3.3c-2.3,0-3.8,1.2-3.8,3.1c0,2.2,1.9,2.7,3.6,3.1c1.5,0.4,2.8,0.7,2.8,2
				c0,1.2-1.1,1.9-2.5,1.9c-1.6,0-2.7-0.8-2.7-2.2h-1.4C-43.1-125.5-41.4-124.1-39-124.1z"/>
		</g>
	</g>
</g>
<g>
	<g transform="translate(181.573902, 218.349991)">
		<g>
			<path class="st2" d="M-34.5-133c-1.4,0-2.6,0.6-3.4,1.5l-0.3-1.3h-0.9v11.7h1.4v-4.2c0.8,0.8,1.9,1.3,3.2,1.3
				c2.6,0,4.4-1.9,4.4-4.5C-30.1-131.1-31.9-133-34.5-133z M-34.6-125.3c-1.8,0-3.2-1.4-3.2-3.2c0-1.8,1.3-3.2,3.2-3.2
				c1.8,0,3.2,1.4,3.2,3.2C-31.4-126.7-32.8-125.3-34.6-125.3z"/>
		</g>
	</g>
</g>
<g>
	<g transform="translate(192.769942, 218.349991)">
		<g>
			<path class="st2" d="M-28-132.9l-0.2,1.3c-0.8-0.9-2-1.5-3.4-1.5c-2.6,0-4.5,1.9-4.5,4.5c0,2.6,1.9,4.5,4.5,4.5
				c1.4,0,2.6-0.6,3.4-1.5l0.1,1.3h1.1v-8.6H-28z M-31.5-125.3c-1.8,0-3.2-1.4-3.2-3.2c0-1.8,1.4-3.2,3.2-3.2c1.8,0,3.2,1.4,3.2,3.2
				C-28.3-126.7-29.7-125.3-31.5-125.3z"/>
		</g>
	</g>
</g>
<g>
	<g transform="translate(204.037977, 218.349991)">
		<g>
			<path class="st2" d="M-27.8-124c2,0,3.7-1.2,4.2-3.1H-25c-0.5,1.2-1.6,1.8-2.8,1.8c-1.8,0-3.1-1.4-3.1-3.2c0-1.8,1.3-3.2,3.1-3.2
				c1.3,0,2.4,0.7,2.8,1.8h1.4c-0.5-1.9-2.1-3.1-4.2-3.1c-2.6,0-4.5,1.9-4.5,4.5C-32.3-126-30.4-124-27.8-124z"/>
		</g>
	</g>
</g>
<g>
	<g transform="translate(214.358007, 218.349991)">
		<g>
			<path class="st2" d="M-20.1-128.5c0-2.5-1.7-4.5-4.3-4.5c-2.5,0-4.4,1.9-4.4,4.5c0,2.6,1.9,4.5,4.4,4.5c1.9,0,3.4-1,4.1-2.8h-1.4
				c-0.5,0.9-1.5,1.5-2.7,1.5c-1.6,0-2.8-1.1-3-2.7h7.4C-20.1-128.2-20.1-128.3-20.1-128.5z M-24.5-131.8c1.5,0,2.7,1,3,2.5h-6
				C-27.2-130.8-26-131.8-24.5-131.8z"/>
		</g>
	</g>
</g>
<g>
	<g transform="translate(224.822037, 218.349991)">
	</g>
</g>
<g>
	<g transform="translate(230.846058, 218.349991)">
		<g>
			<path class="st2" d="M-16-124.2h1.6l-2.7-4.5c1.5-0.4,2.5-1.7,2.5-3.2c0-2-1.6-3.4-3.6-3.4h-4.3v11.2h1.4v-4.4h2.5L-16-124.2z
				 M-21.1-134.1h2.8c1.4,0,2.3,0.9,2.3,2.1s-0.9,2.1-2.3,2.1h-2.8V-134.1z"/>
		</g>
	</g>
</g>
<g>
	<g transform="translate(241.454089, 218.349991)">
		<g>
			<path class="st2" d="M-11.1-128.5c0-2.5-1.7-4.5-4.3-4.5c-2.5,0-4.4,1.9-4.4,4.5c0,2.6,1.9,4.5,4.4,4.5c1.9,0,3.4-1,4.1-2.8h-1.4
				c-0.5,0.9-1.5,1.5-2.7,1.5c-1.6,0-2.8-1.1-3-2.7h7.4C-11.1-128.2-11.1-128.3-11.1-128.5z M-15.4-131.8c1.5,0,2.7,1,3,2.5h-6
				C-18.2-130.8-17-131.8-15.4-131.8z"/>
		</g>
	</g>
</g>
<g>
	<g transform="translate(251.91812, 218.349991)">
		<g>
			<path class="st2" d="M-11.9-124c2,0,3.7-1.2,4.2-3.1H-9c-0.5,1.2-1.6,1.8-2.8,1.8c-1.8,0-3.1-1.4-3.1-3.2c0-1.8,1.3-3.2,3.1-3.2
				c1.3,0,2.4,0.7,2.8,1.8h1.4c-0.5-1.9-2.1-3.1-4.2-3.1c-2.6,0-4.5,1.9-4.5,4.5C-16.4-126-14.4-124-11.9-124z"/>
		</g>
	</g>
</g>
<g>
	<g transform="translate(262.23815, 218.349991)">
		<g>
			<path class="st2" d="M-8.3-124c2.6,0,4.6-1.9,4.6-4.5c0-2.6-2-4.5-4.6-4.5c-2.6,0-4.6,1.9-4.6,4.5C-12.9-125.9-10.9-124-8.3-124z
				 M-8.3-125.3c-1.9,0-3.2-1.3-3.2-3.2c0-1.8,1.3-3.2,3.2-3.2c1.8,0,3.2,1.3,3.2,3.2C-5.1-126.7-6.5-125.3-8.3-125.3z"/>
		</g>
	</g>
</g>
<g>
	<g transform="translate(273.026185, 218.349991)">
		<g>
			<path class="st2" d="M-4.7-132.9c-1.3,0-2.1,0.5-2.8,1.4l-0.2-1.3h-1v8.6h1.4v-4.7c0-1.7,0.9-2.7,2.5-2.7h0.9v-1.3H-4.7z"/>
		</g>
	</g>
</g>
<g>
	<g transform="translate(280.538212, 218.349991)">
		<g>
			<path class="st2" d="M0.9-135.9v4.2C0-132.6-1.1-133-2.4-133c-2.6,0-4.5,1.9-4.5,4.5c0,2.6,1.9,4.5,4.5,4.5
				c1.4,0,2.5-0.5,3.3-1.4l0.2,1.2h1.1v-11.7H0.9z M-2.3-125.3c-1.8,0-3.2-1.4-3.2-3.2c0-1.8,1.3-3.2,3.2-3.2c1.8,0,3.2,1.4,3.2,3.2
				C0.9-126.7-0.4-125.3-2.3-125.3z"/>
		</g>
	</g>
</g>
</svg>
